<svg xmlns="http://www.w3.org/2000/svg" width="50" height="50" viewBox="0 -4 28 28" fill="none" xmlns:v="https://vecta.io/nano"><g clip-path="url(#B)"><rect width="28" height="20" rx="2" fill="#fff"/><mask id="A" maskUnits="userSpaceOnUse" x="0" y="0" width="28" height="20" mask-type="alpha"><rect width="28" height="20" rx="2" fill="#fff"/></mask><g mask="url(#A)"><path fill="#0a17a7" d="M0 0h28v20H0z"/><path fill-rule="evenodd" d="M-1.282-1.916l11.949 8.06v-7.477h6.667v7.477l11.949-8.06L30.774.294l-9.447 6.372H28v6.667h-6.674l9.447 6.372-1.491 2.211-11.949-8.06v7.477h-6.667v-7.477l-11.949 8.06-1.491-2.211 9.447-6.372H0V6.667h6.674L-2.774.294l1.491-2.211z" fill="#fff"/><path d="M18.668 6.332L31.333-2m-11.32 15.698l11.354 7.653M8.006 6.31L-3.837-1.671M9.29 13.605l-13.128 8.706" stroke="#db1f35" stroke-width=".667" stroke-linecap="round"/><path fill-rule="evenodd" d="M0 12h12v8h4v-8h12V8H16V0h-4v8H0v4z" fill="#e6273e"/></g></g><defs><clipPath id="B"><rect width="28" height="20" rx="2" fill="#fff"/></clipPath></defs></svg>